<?xml version="1.0" encoding="UTF-8" standalone="no"?>
<!DOCTYPE svg PUBLIC "-//W3C//DTD SVG 1.1//EN"
 "http://www.w3.org/Graphics/SVG/1.1/DTD/svg11.dtd">
<!-- Generated by graphviz version 2.47.0 (20210316.0004)
 -->
<!-- Title: dbml Pages: 1 -->
<svg width="1889pt" height="608pt"
 viewBox="0.00 0.00 1888.78 607.63" xmlns="http://www.w3.org/2000/svg" xmlns:xlink="http://www.w3.org/1999/xlink">
<g id="graph0" class="graph" transform="scale(1 1) rotate(0) translate(4 603.63)">
<title>dbml</title>
<!-- Users -->
<g id="Users" class="node">
<title>Users</title>
<ellipse fill="none" stroke="black" stroke-width="0" cx="1626.93" cy="-389.81" rx="253.7" ry="172.57"/>
<polygon fill="#1d71b8" stroke="transparent" points="1449.93,-449.81 1449.93,-509.81 1804.93,-509.81 1804.93,-449.81 1449.93,-449.81"/>
<polygon fill="none" stroke="#29235c" points="1449.93,-449.81 1449.93,-509.81 1804.93,-509.81 1804.93,-449.81 1449.93,-449.81"/>
<text text-anchor="start" x="1523.41" y="-471.01" font-family="Helvetica,sans-Serif" font-weight="bold" font-size="32.00" fill="#ffffff"> &#160;&#160;&#160;&#160;&#160;&#160;Users &#160;&#160;&#160;&#160;&#160;&#160;</text>
<polygon fill="#e7e2dd" stroke="transparent" points="1449.93,-389.81 1449.93,-449.81 1804.93,-449.81 1804.93,-389.81 1449.93,-389.81"/>
<polygon fill="none" stroke="#29235c" points="1449.93,-389.81 1449.93,-449.81 1804.93,-449.81 1804.93,-389.81 1449.93,-389.81"/>
<text text-anchor="start" x="1460.93" y="-411.01" font-family="Helvetica,sans-Serif" font-weight="bold" font-size="32.00" fill="#29235c">user_id</text>
<text text-anchor="start" x="1565.84" y="-411.01" font-family="Helvetica,sans-Serif" font-size="32.00" fill="#29235c"> &#160;&#160;&#160;</text>
<text text-anchor="start" x="1715.73" y="-411.01" font-family="Helvetica,sans-Serif" font-style="italic" font-size="32.00" fill="#29235c">UUID</text>
<polygon fill="#e7e2dd" stroke="transparent" points="1449.93,-329.81 1449.93,-389.81 1804.93,-389.81 1804.93,-329.81 1449.93,-329.81"/>
<polygon fill="none" stroke="#29235c" points="1449.93,-329.81 1449.93,-389.81 1804.93,-389.81 1804.93,-329.81 1449.93,-329.81"/>
<text text-anchor="start" x="1460.52" y="-350.01" font-family="Helvetica,sans-Serif" font-size="32.00" fill="#29235c">username &#160;&#160;&#160;</text>
<text text-anchor="start" x="1637.72" y="-351.01" font-family="Helvetica,sans-Serif" font-style="italic" font-size="32.00" fill="#29235c">VARCHAR</text>
<polygon fill="#e7e2dd" stroke="transparent" points="1449.93,-269.81 1449.93,-329.81 1804.93,-329.81 1804.93,-269.81 1449.93,-269.81"/>
<polygon fill="none" stroke="#29235c" points="1449.93,-269.81 1449.93,-329.81 1804.93,-329.81 1804.93,-269.81 1449.93,-269.81"/>
<text text-anchor="start" x="1460.93" y="-290.01" font-family="Helvetica,sans-Serif" font-size="32.00" fill="#29235c">role &#160;&#160;&#160;</text>
<text text-anchor="start" x="1687.26" y="-291.01" font-family="Helvetica,sans-Serif" font-style="italic" font-size="32.00" fill="#29235c">varchar</text>
<polygon fill="none" stroke="#29235c" stroke-width="2" points="1448.43,-268.81 1448.43,-510.81 1805.43,-510.81 1805.43,-268.81 1448.43,-268.81"/>
</g>
<!-- Jobs -->
<g id="Jobs" class="node">
<title>Jobs</title>
<ellipse fill="none" stroke="black" stroke-width="0" cx="988.47" cy="-299.81" rx="348.71" ry="299.63"/>
<polygon fill="#1d71b8" stroke="transparent" points="744.47,-449.81 744.47,-509.81 1233.47,-509.81 1233.47,-449.81 744.47,-449.81"/>
<polygon fill="none" stroke="#29235c" points="744.47,-449.81 744.47,-509.81 1233.47,-509.81 1233.47,-449.81 744.47,-449.81"/>
<text text-anchor="start" x="892.93" y="-471.01" font-family="Helvetica,sans-Serif" font-weight="bold" font-size="32.00" fill="#ffffff"> &#160;&#160;&#160;&#160;&#160;&#160;Jobs &#160;&#160;&#160;&#160;&#160;&#160;</text>
<polygon fill="#e7e2dd" stroke="transparent" points="744.47,-389.81 744.47,-449.81 1233.47,-449.81 1233.47,-389.81 744.47,-389.81"/>
<polygon fill="none" stroke="#29235c" points="744.47,-389.81 744.47,-449.81 1233.47,-449.81 1233.47,-389.81 744.47,-389.81"/>
<text text-anchor="start" x="755.47" y="-411.01" font-family="Helvetica,sans-Serif" font-weight="bold" font-size="32.00" fill="#29235c">job_id</text>
<text text-anchor="start" x="840.83" y="-411.01" font-family="Helvetica,sans-Serif" font-size="32.00" fill="#29235c"> &#160;&#160;&#160;</text>
<text text-anchor="start" x="1144.28" y="-411.01" font-family="Helvetica,sans-Serif" font-style="italic" font-size="32.00" fill="#29235c">UUID</text>
<polygon fill="#e7e2dd" stroke="transparent" points="744.47,-329.81 744.47,-389.81 1233.47,-389.81 1233.47,-329.81 744.47,-329.81"/>
<polygon fill="none" stroke="#29235c" points="744.47,-329.81 744.47,-389.81 1233.47,-389.81 1233.47,-329.81 744.47,-329.81"/>
<text text-anchor="start" x="755.47" y="-350.01" font-family="Helvetica,sans-Serif" font-size="32.00" fill="#29235c">user_id &#160;&#160;&#160;</text>
<text text-anchor="start" x="1144.28" y="-351.01" font-family="Helvetica,sans-Serif" font-style="italic" font-size="32.00" fill="#29235c">UUID</text>
<polygon fill="#e7e2dd" stroke="transparent" points="744.47,-269.81 744.47,-329.81 1233.47,-329.81 1233.47,-269.81 744.47,-269.81"/>
<polygon fill="none" stroke="#29235c" points="744.47,-269.81 744.47,-329.81 1233.47,-329.81 1233.47,-269.81 744.47,-269.81"/>
<text text-anchor="start" x="755.47" y="-290.01" font-family="Helvetica,sans-Serif" font-size="32.00" fill="#29235c">status &#160;&#160;&#160;</text>
<text text-anchor="start" x="1115.8" y="-291.01" font-family="Helvetica,sans-Serif" font-style="italic" font-size="32.00" fill="#29235c">varchar</text>
<polygon fill="#e7e2dd" stroke="transparent" points="744.47,-209.81 744.47,-269.81 1233.47,-269.81 1233.47,-209.81 744.47,-209.81"/>
<polygon fill="none" stroke="#29235c" points="744.47,-209.81 744.47,-269.81 1233.47,-269.81 1233.47,-209.81 744.47,-209.81"/>
<text text-anchor="start" x="755.47" y="-230.01" font-family="Helvetica,sans-Serif" font-size="32.00" fill="#29235c">input_path &#160;&#160;&#160;</text>
<text text-anchor="start" x="1066.05" y="-231.01" font-family="Helvetica,sans-Serif" font-style="italic" font-size="32.00" fill="#29235c">VARCHAR</text>
<polygon fill="#e7e2dd" stroke="transparent" points="744.47,-149.81 744.47,-209.81 1233.47,-209.81 1233.47,-149.81 744.47,-149.81"/>
<polygon fill="none" stroke="#29235c" points="744.47,-149.81 744.47,-209.81 1233.47,-209.81 1233.47,-149.81 744.47,-149.81"/>
<text text-anchor="start" x="755.36" y="-170.01" font-family="Helvetica,sans-Serif" font-size="32.00" fill="#29235c">mapper_code_path &#160;&#160;&#160;</text>
<text text-anchor="start" x="1066.26" y="-171.01" font-family="Helvetica,sans-Serif" font-style="italic" font-size="32.00" fill="#29235c">VARCHAR</text>
<polygon fill="#e7e2dd" stroke="transparent" points="744.47,-89.81 744.47,-149.81 1233.47,-149.81 1233.47,-89.81 744.47,-89.81"/>
<polygon fill="none" stroke="#29235c" points="744.47,-89.81 744.47,-149.81 1233.47,-149.81 1233.47,-89.81 744.47,-89.81"/>
<text text-anchor="start" x="755.36" y="-110.01" font-family="Helvetica,sans-Serif" font-size="32.00" fill="#29235c">reducer_code_path &#160;&#160;&#160;</text>
<text text-anchor="start" x="1066.26" y="-111.01" font-family="Helvetica,sans-Serif" font-style="italic" font-size="32.00" fill="#29235c">VARCHAR</text>
<polygon fill="none" stroke="#29235c" stroke-width="2" points="742.97,-88.81 742.97,-510.81 1233.97,-510.81 1233.97,-88.81 742.97,-88.81"/>
</g>
<!-- Jobs&#45;&gt;Users -->
<!-- Jobs&#45;&gt;Users -->
<g id="edge2" class="edge">
<title>Jobs:e&#45;&gt;Users:w</title>
<path fill="none" stroke="#29235c" stroke-width="3" d="M1234.47,-359.81C1329.97,-359.81 1348.69,-415.67 1438.79,-419.6"/>
<polygon fill="#29235c" stroke="#29235c" stroke-width="3" points="1438.86,-423.1 1448.93,-419.81 1439.01,-416.1 1438.86,-423.1"/>
<text text-anchor="middle" x="1457.82" y="-429.41" font-family="Helvetica,sans-Serif" font-size="32.00" fill="#29235c">1</text>
<text text-anchor="middle" x="1228.25" y="-331.01" font-family="Helvetica,sans-Serif" font-size="32.00" fill="#29235c">*</text>
</g>
<!-- Tasks -->
<g id="Tasks" class="node">
<title>Tasks</title>
<ellipse fill="none" stroke="black" stroke-width="0" cx="301.93" cy="-329.81" rx="301.87" ry="257.27"/>
<polygon fill="#1d71b8" stroke="transparent" points="90.93,-449.81 90.93,-509.81 513.93,-509.81 513.93,-449.81 90.93,-449.81"/>
<polygon fill="none" stroke="#29235c" points="90.93,-449.81 90.93,-509.81 513.93,-509.81 513.93,-449.81 90.93,-449.81"/>
<text text-anchor="start" x="197.52" y="-471.01" font-family="Helvetica,sans-Serif" font-weight="bold" font-size="32.00" fill="#ffffff"> &#160;&#160;&#160;&#160;&#160;&#160;Tasks &#160;&#160;&#160;&#160;&#160;&#160;</text>
<polygon fill="#e7e2dd" stroke="transparent" points="90.93,-389.81 90.93,-449.81 513.93,-449.81 513.93,-389.81 90.93,-389.81"/>
<polygon fill="none" stroke="#29235c" points="90.93,-389.81 90.93,-449.81 513.93,-449.81 513.93,-389.81 90.93,-389.81"/>
<text text-anchor="start" x="101.93" y="-411.01" font-family="Helvetica,sans-Serif" font-weight="bold" font-size="32.00" fill="#29235c">task_id</text>
<text text-anchor="start" x="203.29" y="-411.01" font-family="Helvetica,sans-Serif" font-size="32.00" fill="#29235c"> &#160;&#160;&#160;</text>
<text text-anchor="start" x="424.74" y="-411.01" font-family="Helvetica,sans-Serif" font-style="italic" font-size="32.00" fill="#29235c">UUID</text>
<polygon fill="#e7e2dd" stroke="transparent" points="90.93,-329.81 90.93,-389.81 513.93,-389.81 513.93,-329.81 90.93,-329.81"/>
<polygon fill="none" stroke="#29235c" points="90.93,-329.81 90.93,-389.81 513.93,-389.81 513.93,-329.81 90.93,-329.81"/>
<text text-anchor="start" x="101.93" y="-350.01" font-family="Helvetica,sans-Serif" font-size="32.00" fill="#29235c">job_id &#160;&#160;&#160;</text>
<text text-anchor="start" x="424.74" y="-351.01" font-family="Helvetica,sans-Serif" font-style="italic" font-size="32.00" fill="#29235c">UUID</text>
<polygon fill="#e7e2dd" stroke="transparent" points="90.93,-269.81 90.93,-329.81 513.93,-329.81 513.93,-269.81 90.93,-269.81"/>
<polygon fill="none" stroke="#29235c" points="90.93,-269.81 90.93,-329.81 513.93,-329.81 513.93,-269.81 90.93,-269.81"/>
<text text-anchor="start" x="101.93" y="-290.01" font-family="Helvetica,sans-Serif" font-size="32.00" fill="#29235c">task_type &#160;&#160;&#160;</text>
<text text-anchor="start" x="396.26" y="-291.01" font-family="Helvetica,sans-Serif" font-style="italic" font-size="32.00" fill="#29235c">varchar</text>
<polygon fill="#e7e2dd" stroke="transparent" points="90.93,-209.81 90.93,-269.81 513.93,-269.81 513.93,-209.81 90.93,-209.81"/>
<polygon fill="none" stroke="#29235c" points="90.93,-209.81 90.93,-269.81 513.93,-269.81 513.93,-209.81 90.93,-209.81"/>
<text text-anchor="start" x="101.93" y="-230.01" font-family="Helvetica,sans-Serif" font-size="32.00" fill="#29235c">status &#160;&#160;&#160;</text>
<text text-anchor="start" x="396.26" y="-231.01" font-family="Helvetica,sans-Serif" font-style="italic" font-size="32.00" fill="#29235c">varchar</text>
<polygon fill="#e7e2dd" stroke="transparent" points="90.93,-149.81 90.93,-209.81 513.93,-209.81 513.93,-149.81 90.93,-149.81"/>
<polygon fill="none" stroke="#29235c" points="90.93,-149.81 90.93,-209.81 513.93,-209.81 513.93,-149.81 90.93,-149.81"/>
<text text-anchor="start" x="101.74" y="-170.01" font-family="Helvetica,sans-Serif" font-size="32.00" fill="#29235c">worker_pod_id &#160;&#160;&#160;</text>
<text text-anchor="start" x="346.72" y="-171.01" font-family="Helvetica,sans-Serif" font-style="italic" font-size="32.00" fill="#29235c">VARCHAR</text>
<polygon fill="none" stroke="#29235c" stroke-width="2" points="89.43,-148.81 89.43,-510.81 514.43,-510.81 514.43,-148.81 89.43,-148.81"/>
</g>
<!-- Tasks&#45;&gt;Jobs -->
<!-- Tasks&#45;&gt;Jobs -->
<g id="edge4" class="edge">
<title>Tasks:e&#45;&gt;Jobs:w</title>
<path fill="none" stroke="#29235c" stroke-width="3" d="M514.93,-359.81C616.46,-359.81 637.13,-415.9 733.29,-419.62"/>
<polygon fill="#29235c" stroke="#29235c" stroke-width="3" points="733.41,-423.12 743.47,-419.81 733.54,-416.12 733.41,-423.12"/>
<text text-anchor="middle" x="734.58" y="-429.41" font-family="Helvetica,sans-Serif" font-size="32.00" fill="#29235c">1</text>
<text text-anchor="middle" x="521.16" y="-331.01" font-family="Helvetica,sans-Serif" font-size="32.00" fill="#29235c">*</text>
</g>
</g>
</svg>
